<svg width="25" height="28" viewBox="0 0 25 28" fill="none" xmlns="http://www.w3.org/2000/svg">
<path d="M25 19.1761V1.27841C25 0.569957 24.4029 0 23.6607 0H5.35714C2.39955 0 0 2.29048 0 5.11364V22.1591C0 24.9822 2.39955 27.2727 5.35714 27.2727H23.6607C24.4029 27.2727 25 26.7028 25 25.9943V25.142C25 24.7425 24.8047 24.3803 24.5033 24.146C24.269 23.3256 24.269 20.9872 24.5033 20.1669C24.8047 19.9379 25 19.5756 25 19.1761ZM7.14286 7.13778C7.14286 6.962 7.29353 6.81818 7.47768 6.81818H19.308C19.4922 6.81818 19.6429 6.962 19.6429 7.13778V8.20312C19.6429 8.37891 19.4922 8.52273 19.308 8.52273H7.47768C7.29353 8.52273 7.14286 8.37891 7.14286 8.20312V7.13778ZM7.14286 10.5469C7.14286 10.3711 7.29353 10.2273 7.47768 10.2273H19.308C19.4922 10.2273 19.6429 10.3711 19.6429 10.5469V11.6122C19.6429 11.788 19.4922 11.9318 19.308 11.9318H7.47768C7.29353 11.9318 7.14286 11.788 7.14286 11.6122V10.5469ZM21.2835 23.8636H5.35714C4.36942 23.8636 3.57143 23.1019 3.57143 22.1591C3.57143 21.2216 4.375 20.4545 5.35714 20.4545H21.2835C21.1775 21.3654 21.1775 22.9528 21.2835 23.8636Z" fill="black" fill-opacity="0.6"/>
</svg>
