<svg width="25" height="28" viewBox="0 0 25 28" fill="none" xmlns="http://www.w3.org/2000/svg">
<path d="M12.5 0C5.59476 0 0 6.10276 0 13.635C0 21.1672 5.59476 27.27 12.5 27.27C19.4052 27.27 25 21.1672 25 13.635C25 6.10276 19.4052 0 12.5 0ZM12.5 5.27806C14.9496 5.27806 16.9355 7.44427 16.9355 10.1163C16.9355 12.7883 14.9496 14.9545 12.5 14.9545C10.0504 14.9545 8.06452 12.7883 8.06452 10.1163C8.06452 7.44427 10.0504 5.27806 12.5 5.27806ZM12.5 24.1911C9.54133 24.1911 6.89012 22.7287 5.11593 20.4415C6.06351 18.4952 7.91835 17.1537 10.0806 17.1537C10.2016 17.1537 10.3226 17.1757 10.4385 17.2142C11.0938 17.4451 11.7792 17.5935 12.5 17.5935C13.2208 17.5935 13.9113 17.4451 14.5615 17.2142C14.6774 17.1757 14.7984 17.1537 14.9194 17.1537C17.0817 17.1537 18.9365 18.4952 19.8841 20.4415C18.1099 22.7287 15.4587 24.1911 12.5 24.1911Z" fill="black" fill-opacity="0.6"/>
</svg>
