<svg width="40" height="40" viewBox="0 0 40 40" fill="none" xmlns="http://www.w3.org/2000/svg">
<path d="M20 20C26.3125 20 31.4286 15.5234 31.4286 10C31.4286 4.47656 26.3125 0 20 0C13.6875 0 8.57143 4.47656 8.57143 10C8.57143 15.5234 13.6875 20 20 20ZM28 22.5H26.5089C24.5268 23.2969 22.3214 23.75 20 23.75C17.6786 23.75 15.4821 23.2969 13.4911 22.5H12C5.375 22.5 0 27.2031 0 33V36.25C0 38.3203 1.91964 40 4.28571 40H35.7143C38.0804 40 40 38.3203 40 36.25V33C40 27.2031 34.625 22.5 28 22.5Z" fill="black"/>
</svg>
