<svg width="25" height="28" viewBox="0 0 25 28" fill="none" xmlns="http://www.w3.org/2000/svg">
<path d="M12.5 27.2726C14.471 27.2726 16.0697 25.7465 16.0697 23.8636H8.93026C8.93026 25.7465 10.529 27.2726 12.5 27.2726ZM24.5195 19.2981C23.4414 18.1922 21.4241 16.5287 21.4241 11.0795C21.4241 6.94067 18.3839 3.62747 14.2846 2.81462V1.70454C14.2846 0.763314 13.4855 0 12.5 0C11.5145 0 10.7154 0.763314 10.7154 1.70454V2.81462C6.61609 3.62747 3.57592 6.94067 3.57592 11.0795C3.57592 16.5287 1.55863 18.1922 0.480506 19.2981C0.145685 19.6416 -0.00275159 20.0523 3.85818e-05 20.4545C0.00617696 21.3281 0.724367 22.159 1.79133 22.159H23.2087C24.2756 22.159 24.9944 21.3281 25 20.4545C25.0028 20.0523 24.8543 19.6411 24.5195 19.2981Z" fill="black" fill-opacity="0.6"/>
</svg>
