<svg width="30" height="25" viewBox="0 0 30 25" fill="none" xmlns="http://www.w3.org/2000/svg">
<path d="M29.0625 20.4545H3.75V1.02273C3.75 0.45767 3.33047 0 2.8125 0H0.9375C0.419531 0 0 0.45767 0 1.02273V22.5C0 23.6295 0.839648 24.5455 1.875 24.5455H29.0625C29.5805 24.5455 30 24.0878 30 23.5227V21.4773C30 20.9122 29.5805 20.4545 29.0625 20.4545ZM27.1875 2.04545H20.2699C19.0172 2.04545 18.3896 3.6978 19.2756 4.66428L21.174 6.7353L16.875 11.4258L12.576 6.73594C11.8436 5.93693 10.6564 5.93693 9.92461 6.73594L5.89981 11.1266C5.53359 11.5261 5.53359 12.1737 5.89981 12.5732L7.22519 14.019C7.59141 14.4185 8.18496 14.4185 8.55117 14.019L11.25 11.0742L15.549 15.7641C16.2814 16.5631 17.4686 16.5631 18.2004 15.7641L23.8254 9.6277L25.7238 11.6987C26.6098 12.6652 28.1244 11.9806 28.1244 10.614V3.06818C28.125 2.50312 27.7055 2.04545 27.1875 2.04545Z" fill="#08AFE4" fill-opacity="0.6"/>
</svg>
