<svg 
          width="35" 
          height="36" fill="none" 
          xmlns="http://www.w3.org/2000/svg">
          <path d="M 31.25 0 L 3.75 0 C 2.7554381638765335 1.1419436824715897e-15 1.8016109615564346 0.40637650660106117 1.098349541425705 1.1297311101640974 C 0.3950881212949753 1.8530857137271337 1.0408340855860843e-15 2.8341649685587207 0 3.8571428571428577 L 4.85722573273506e-16 32.142857142857146 C 1.3183898417423734e-15 33.16583503144128 0.3950881212949753 34.14691489934921 1.098349541425705 34.87026950291225 C 1.8016109615564346 35.59362410647529 2.7554381638765335 35.99999999999999 3.75 36 L 14.47265625 36 L 14.47265625 23.760803767613005 L 9.55078125 23.760803767613005 L 9.55078125 18 L 14.47265625 18 L 14.47265625 13.609285763331822 C 14.47265625 8.615089212145124 17.363282442092896 5.856428350721087 21.790626049041748 5.856428350721087 C 23.910938501358032 5.856428350721087 26.128125190734863 6.2453572409493585 26.128125190734863 6.2453572409493585 L 26.128125190734863 11.147142955235074 L 23.685157299041748 11.147142955235074 C 21.278126090765 11.147142955235074 20.52734375 12.683571134294784 20.52734375 14.259374754769462 L 20.52734375 18 L 25.90078115463257 18 L 25.04140615463257 23.760803767613005 L 20.52734375 23.760803767613005 L 20.52734375 36 L 31.25 36 C 32.24456183612347 35.99999999999999 33.1983894854784 35.59362410647529 33.90165090560913 34.87026950291225 C 34.60491232573986 34.14691489934921 35 33.16583503144128 35 32.142857142857146 L 35 3.8571428571428577 C 34.99999999999999 2.8341649685587207 34.60491232573986 1.8530857137271337 33.90165090560913 1.1297311101640974 C 33.1983894854784 0.40637650660106117 32.24456183612347 5.709718412357948e-16 31.25 0 L 31.25 0 Z" fill="rgb(255,255,255)"/>
        </svg>